<?xml version="1.0" standalone="no"?>
<!DOCTYPE svg PUBLIC "-//W3C//DTD SVG 1.1//EN" "http://www.w3.org/Graphics/SVG/1.1/DTD/svg11.dtd">
<!--Generator: Xara Designer (www.xara.com), SVG filter version: 4.0.0.1-->
<svg stroke-width="0.501" stroke-linejoin="bevel" fill-rule="evenodd" xmlns:xlink="http://www.w3.org/1999/xlink" xmlns="http://www.w3.org/2000/svg" version="1.1" overflow="visible" width="95.709pt" height="25.764pt" viewBox="0 0 95.709 25.764">
 <defs>
  <marker id="DefaultArrow2" markerUnits="strokeWidth" viewBox="0 0 1 1" markerWidth="1" markerHeight="1" overflow="visible" orient="auto">
   <!-- REF_ARROW_STRAIGHT (-2) -->
   <g transform="scale(0.0092592592)">
    <!-- 1/108 -->
    <path d="M -9 54 L -9 -54 L 117 0 z"/>
   </g>
  </marker>
  <marker id="DefaultArrow3" markerUnits="strokeWidth" viewBox="0 0 1 1" markerWidth="1" markerHeight="1" overflow="visible" orient="auto">
   <!-- REF_ARROW_ANGLED -->
   <g transform="scale(0.0092592592)">
    <path d="M -27 54 L -9 0 L -27 -54 L 135 0 z"/>
   </g>
  </marker>
  <marker id="DefaultArrow4" markerUnits="strokeWidth" viewBox="0 0 1 1" markerWidth="1" markerHeight="1" overflow="visible" orient="auto">
   <!-- REF_ARROW_ROUNDED -->
   <g transform="scale(0.0092592592)">
    <path d="M -9,0 L -9,-45 C -9,-51.708 2.808,-56.580 9,-54 L 117,-9 C 120.916,-7.369 126.000,-4.242 126,0 C 126,4.242 120.916,7.369 117,9 L 9,54 C 2.808,56.580 -9,51.708 -9,45 z"/>
   </g>
  </marker>
  <marker id="DefaultArrow5" markerUnits="strokeWidth" viewBox="0 0 1 1" markerWidth="1" markerHeight="1" overflow="visible" orient="auto">
   <!-- REF_ARROW_SPOT -->
   <g transform="scale(0.0092592592)">
    <path d="M -54, 0 C -54,29.807 -29.807,54 0,54 C 29.807,54 54,29.807 54,0 C 54,-29.807 29.807,-54 0,-54 C -29.807,-54 -54,-29.807 -54,0 z"/>
   </g>
  </marker>
  <marker id="DefaultArrow6" markerUnits="strokeWidth" viewBox="0 0 1 1" markerWidth="1" markerHeight="1" overflow="visible" orient="auto">
   <!-- REF_ARROW_DIAMOND -->
   <g transform="scale(0.0092592592)">
    <path d="M -63,0 L 0,63 L 63,0 L 0,-63 z"/>
   </g>
  </marker>
  <marker id="DefaultArrow7" markerUnits="strokeWidth" viewBox="0 0 1 1" markerWidth="1" markerHeight="1" overflow="visible" orient="auto">
   <!-- REF_ARROW_FEATHER -->
   <g transform="scale(0.0092592592)">
    <path d="M 18,-54 L 108,-54 L 63,0 L 108,54 L 18, 54 L -36,0 z"/>
   </g>
  </marker>
  <marker id="DefaultArrow8" markerUnits="strokeWidth" viewBox="0 0 1 1" markerWidth="1" markerHeight="1" overflow="visible" orient="auto">
   <!-- REF_ARROW_FEATHER2 -->
   <g transform="scale(0.0092592592)">
    <path d="M -36,0 L 18,-54 L 54,-54 L 18,-18 L 27,-18 L 63,-54 L 99,-54 L 63,-18 L 72,-18 L 108,-54 L 144,-54 L 90,0 L 144,54 L 108,54 L 72,18 L 63,18 L 99,54 L 63,54 L 27,18 L 18,18 L 54,54 L 18,54 z"/>
   </g>
  </marker>
  <marker id="DefaultArrow9" markerUnits="strokeWidth" viewBox="0 0 1 1" markerWidth="1" markerHeight="1" overflow="visible" orient="auto">
   <!-- REF_ARROW_HOLLOWDIAMOND -->
   <g transform="scale(0.0092592592)">
    <path d="M 0,45 L -45,0 L 0, -45 L 45, 0 z M 0, 63 L-63, 0 L 0, -63 L 63, 0 z"/>
   </g>
  </marker>
  <filter id="StainedFilter">
   <feBlend mode="multiply" in2="BackgroundImage" in="SourceGraphic" result="blend"/>
   <feComposite in="blend" in2="SourceAlpha" operator="in" result="comp"/>
  </filter>
  <filter id="BleachFilter">
   <feBlend mode="screen" in2="BackgroundImage" in="SourceGraphic" result="blend"/>
   <feComposite in="blend" in2="SourceAlpha" operator="in" result="comp"/>
  </filter>
  <filter id="InvertTransparencyBitmapFilter">
   <feComponentTransfer>
    <feFuncR type="gamma" amplitude="1.055" exponent=".416666666" offset="-0.055"/>
    <feFuncG type="gamma" amplitude="1.055" exponent=".416666666" offset="-0.055"/>
    <feFuncB type="gamma" amplitude="1.055" exponent=".416666666" offset="-0.055"/>
   </feComponentTransfer>
   <feComponentTransfer>
    <feFuncR type="linear" slope="-1" intercept="1"/>
    <feFuncG type="linear" slope="-1" intercept="1"/>
    <feFuncB type="linear" slope="-1" intercept="1"/>
    <feFuncA type="linear" slope="1" intercept="0"/>
   </feComponentTransfer>
   <feComponentTransfer>
    <feFuncR type="gamma" amplitude="1" exponent="2.4" offset="0"/>
    <feFuncG type="gamma" amplitude="1" exponent="2.4" offset="0"/>
    <feFuncB type="gamma" amplitude="1" exponent="2.4" offset="0"/>
   </feComponentTransfer>
  </filter>
 </defs>
 <g id="Document" fill="none" stroke="black" font-family="Times New Roman" font-size="16" transform="scale(1 -1)">
  <g id="Spread" transform="translate(0 -25.764)">
   <g id="Layer 1">
    <g id="Group" fill-rule="nonzero" stroke="none" fill="#000000">
     <path d="M 9.126,5.411 C 9.126,4.898 9.1,4.365 9.047,3.81 C 8.993,3.255 8.871,2.737 8.677,2.257 C 8.486,1.776 8.208,1.362 7.845,1.007 C 7.482,0.656 6.992,0.417 6.372,0.288 C 6.137,0.243 5.839,0.186 5.476,0.111 C 5.113,0.037 4.879,-0.001 4.772,-0.001 C 4.729,-0.001 4.622,0.009 4.452,0.032 C 4.28,0.052 4.084,0.08 3.858,0.111 C 3.635,0.143 3.409,0.174 3.186,0.207 C 2.962,0.24 2.786,0.276 2.659,0.319 C 2.403,0.362 2.129,0.486 1.843,0.687 C 1.553,0.89 1.282,1.147 1.024,1.456 C 0.77,1.766 0.556,2.102 0.384,2.465 C 0.214,2.828 0.128,3.189 0.128,3.554 C 0.107,3.554 0.097,3.564 0.097,3.585 L 0.097,3.65 C 0.031,3.779 0,3.905 0,4.034 L 0,21.837 C 0,21.903 0.031,22.02 0.097,22.19 L 0.064,22.157 C 0.107,22.329 0.128,22.436 0.128,22.479 C 0.15,22.947 0.267,23.417 0.481,23.888 C 0.694,24.356 0.983,24.74 1.346,25.04 C 1.709,25.274 2.22,25.451 2.883,25.568 C 3.543,25.685 4.249,25.745 4.996,25.745 C 5.786,25.745 6.448,25.675 6.982,25.537 C 7.515,25.397 7.942,25.148 8.262,24.785 C 8.582,24.42 8.806,23.924 8.935,23.295 C 9.064,22.665 9.126,21.849 9.126,20.846 L 9.126,20.509 C 9.126,20.328 9.105,20.135 9.064,19.932 C 9.019,19.731 8.952,19.542 8.854,19.371 C 8.757,19.201 8.615,19.117 8.422,19.117 L 6.501,19.117 C 6.372,19.33 6.276,19.473 6.212,19.549 C 6.149,19.623 6.095,19.703 6.052,19.788 C 6.052,20.067 6.032,20.397 5.989,20.781 C 5.946,21.166 5.87,21.522 5.763,21.854 C 5.657,22.185 5.512,22.467 5.331,22.703 C 5.149,22.937 4.93,23.054 4.676,23.054 C 4.376,23.054 4.12,22.968 3.907,22.799 C 3.693,22.627 3.523,22.403 3.394,22.126 C 3.268,21.849 3.175,21.54 3.124,21.197 C 3.069,20.856 3.043,20.526 3.043,20.204 L 3.043,5.603 C 3.043,5.347 3.053,5.055 3.074,4.722 C 3.094,4.392 3.155,4.082 3.251,3.795 C 3.347,3.506 3.49,3.267 3.683,3.074 C 3.874,2.881 4.132,2.785 4.452,2.785 C 4.684,2.785 4.942,2.871 5.221,3.041 C 5.497,3.212 5.71,3.542 5.86,4.034 L 5.86,4.001 C 5.903,4.215 5.935,4.433 5.956,4.659 C 5.977,4.882 5.999,5.079 6.02,5.251 C 6.042,5.357 6.052,5.495 6.052,5.667 C 6.073,5.944 6.095,6.216 6.118,6.485 C 6.137,6.75 6.286,6.968 6.565,7.14 C 6.736,7.181 6.928,7.204 7.142,7.204 L 7.591,7.204 C 7.974,7.204 8.272,7.199 8.486,7.188 C 8.699,7.176 8.854,7.113 8.952,6.996 C 9.047,6.879 9.1,6.698 9.11,6.452 C 9.12,6.206 9.126,5.858 9.126,5.411 L 9.126,5.411 Z" marker-start="none" marker-end="none"/>
     <path d="M 13.932,0.257 C 13.804,0.149 13.656,0.075 13.488,0.032 C 13.319,-0.011 13.156,-0.027 12.996,-0.017 C 12.837,-0.006 12.717,-0.001 12.633,-0.001 L 12.283,-0.001 C 12.115,-0.001 11.946,0.021 11.777,0.063 C 11.607,0.107 11.461,0.181 11.333,0.288 C 11.206,0.393 11.142,0.565 11.142,0.801 L 11.142,24.912 C 11.142,25.148 11.206,25.322 11.333,25.439 C 11.461,25.558 11.607,25.637 11.777,25.681 C 11.946,25.723 12.115,25.738 12.283,25.73 C 12.454,25.718 12.579,25.712 12.664,25.712 L 13.028,25.712 C 13.187,25.712 13.345,25.692 13.503,25.649 C 13.662,25.606 13.804,25.527 13.932,25.408 C 14.057,25.291 14.121,25.124 14.121,24.912 L 14.121,0.768 C 14.121,0.534 14.057,0.362 13.932,0.257 L 13.932,0.257 Z" marker-start="none" marker-end="none"/>
     <path d="M 24.418,0.257 C 24.28,0.149 24.127,0.075 23.959,0.032 C 23.788,-0.011 23.625,-0.027 23.467,-0.017 C 23.308,-0.006 23.196,-0.001 23.133,-0.001 L 22.943,-0.001 C 22.754,-0.001 22.579,0.004 22.42,0.016 C 22.262,0.026 22.124,0.08 22.007,0.176 C 21.892,0.273 21.787,0.421 21.692,0.624 C 21.596,0.827 21.507,1.111 21.422,1.472 C 21.14,2.967 20.837,4.44 20.512,5.891 C 20.187,7.343 19.851,8.806 19.504,10.279 C 19.461,10.449 19.418,10.625 19.375,10.807 C 19.33,10.988 19.287,11.165 19.244,11.335 L 19.244,0.768 C 19.244,0.534 19.18,0.362 19.053,0.257 C 18.924,0.149 18.774,0.075 18.605,0.032 C 18.432,-0.011 18.263,-0.027 18.093,-0.017 C 17.921,-0.006 17.793,-0.001 17.709,-0.001 L 17.37,-0.001 C 17.212,-0.001 17.052,0.021 16.89,0.063 C 16.731,0.107 16.587,0.181 16.458,0.288 C 16.331,0.393 16.267,0.565 16.267,0.801 L 16.267,24.976 C 16.267,25.189 16.325,25.349 16.444,25.456 C 16.561,25.564 16.707,25.644 16.878,25.697 C 17.05,25.75 17.22,25.771 17.394,25.761 C 17.566,25.75 17.705,25.745 17.812,25.745 L 17.974,25.745 C 18.339,25.745 18.655,25.681 18.924,25.552 C 19.192,25.423 19.392,25.029 19.519,24.368 C 19.8,22.937 20.099,21.502 20.423,20.061 C 20.744,18.621 21.066,17.196 21.388,15.787 C 21.433,15.574 21.474,15.376 21.517,15.195 C 21.56,15.013 21.603,14.835 21.646,14.665 L 21.646,24.976 C 21.646,25.189 21.708,25.349 21.835,25.456 C 21.963,25.564 22.116,25.644 22.296,25.697 C 22.474,25.75 22.649,25.771 22.818,25.761 C 22.986,25.75 23.124,25.745 23.229,25.745 L 23.578,25.745 C 23.726,25.745 23.88,25.723 24.038,25.681 C 24.196,25.637 24.334,25.564 24.449,25.456 C 24.566,25.349 24.625,25.189 24.625,24.976 L 24.625,0.768 C 24.625,0.534 24.556,0.362 24.418,0.257 L 24.418,0.257 Z" marker-start="none" marker-end="none"/>
     <path d="M 34.037,1.217 C 34.037,1.152 34.032,1.055 34.022,0.928 C 34.011,0.801 33.984,0.667 33.943,0.527 C 33.898,0.39 33.834,0.267 33.75,0.159 C 33.664,0.052 33.536,-0.001 33.366,-0.001 L 27.121,-0.001 C 27.015,-0.001 26.865,0.102 26.674,0.305 C 26.481,0.507 26.385,0.672 26.385,0.801 L 26.385,24.912 C 26.385,25.062 26.497,25.232 26.722,25.423 C 26.944,25.616 27.121,25.712 27.251,25.712 L 33.237,25.712 C 33.43,25.712 33.583,25.659 33.702,25.552 C 33.819,25.446 33.898,25.317 33.943,25.169 C 33.984,25.019 34.011,24.88 34.022,24.752 C 34.032,24.623 34.037,24.527 34.037,24.463 C 34.037,24.399 34.032,24.298 34.022,24.16 C 34.011,24.021 33.984,23.881 33.943,23.744 C 33.898,23.604 33.834,23.482 33.75,23.376 C 33.664,23.267 33.536,23.216 33.366,23.216 L 29.524,23.216 C 29.479,23.216 29.458,23.162 29.458,23.054 L 29.458,14.761 C 29.458,14.653 29.479,14.601 29.524,14.601 L 32.244,14.601 C 32.416,14.601 32.549,14.538 32.645,14.409 C 32.741,14.281 32.81,14.142 32.853,13.992 C 32.917,13.822 32.95,13.629 32.95,13.416 C 32.95,13.354 32.943,13.257 32.934,13.128 C 32.922,12.999 32.889,12.867 32.836,12.729 C 32.785,12.59 32.709,12.466 32.612,12.361 C 32.518,12.253 32.394,12.199 32.244,12.199 L 29.524,12.199 C 29.479,12.199 29.458,12.146 29.458,12.039 L 29.458,2.561 C 29.458,2.454 29.479,2.401 29.524,2.401 L 33.366,2.401 C 33.557,2.401 33.697,2.348 33.783,2.241 C 33.867,2.133 33.931,2.011 33.974,1.873 C 34.015,1.733 34.037,1.601 34.037,1.472 L 34.037,1.217 Z" marker-start="none" marker-end="none"/>
     <path d="M 43.548,24.592 C 43.548,24.527 43.541,24.432 43.532,24.303 C 43.52,24.176 43.5,24.043 43.467,23.904 C 43.436,23.764 43.372,23.642 43.276,23.534 C 43.18,23.427 43.056,23.376 42.908,23.376 L 41.018,23.376 C 40.955,23.376 40.922,23.321 40.922,23.216 L 40.922,0.768 C 40.922,0.553 40.864,0.393 40.747,0.288 C 40.631,0.181 40.488,0.107 40.32,0.063 C 40.149,0.021 39.982,-0.001 39.812,-0.001 L 39.368,-0.001 C 39.327,-0.001 39.227,-0.006 39.069,-0.017 C 38.91,-0.027 38.747,-0.011 38.578,0.032 C 38.408,0.075 38.262,0.154 38.134,0.273 C 38.007,0.39 37.943,0.565 37.943,0.801 L 37.943,23.183 C 37.943,23.203 37.938,23.226 37.928,23.247 C 37.918,23.267 37.911,23.29 37.911,23.312 L 37.911,23.376 L 35.959,23.376 C 35.787,23.376 35.66,23.439 35.574,23.567 C 35.49,23.694 35.424,23.833 35.383,23.983 C 35.34,24.133 35.307,24.336 35.287,24.592 C 35.287,24.826 35.33,25.077 35.416,25.344 C 35.5,25.611 35.713,25.745 36.054,25.745 L 42.779,25.745 C 42.992,25.745 43.152,25.692 43.259,25.585 C 43.367,25.478 43.441,25.36 43.484,25.232 C 43.526,25.105 43.548,24.976 43.548,24.849 L 43.548,24.592 Z" marker-start="none" marker-end="none"/>
     <path d="M 52.833,1.217 C 52.833,1.152 52.828,1.055 52.818,0.928 C 52.807,0.801 52.78,0.667 52.737,0.527 C 52.696,0.39 52.632,0.267 52.546,0.159 C 52.461,0.052 52.332,-0.001 52.162,-0.001 L 45.917,-0.001 C 45.809,-0.001 45.661,0.102 45.47,0.305 C 45.277,0.507 45.179,0.672 45.179,0.801 L 45.179,24.912 C 45.179,25.062 45.293,25.232 45.518,25.423 C 45.74,25.616 45.917,25.712 46.045,25.712 L 52.033,25.712 C 52.226,25.712 52.381,25.659 52.498,25.552 C 52.615,25.446 52.696,25.317 52.737,25.169 C 52.78,25.019 52.807,24.88 52.818,24.752 C 52.828,24.623 52.833,24.527 52.833,24.463 C 52.833,24.399 52.828,24.298 52.818,24.16 C 52.807,24.021 52.78,23.881 52.737,23.744 C 52.696,23.604 52.632,23.482 52.546,23.376 C 52.461,23.267 52.332,23.216 52.162,23.216 L 48.32,23.216 C 48.275,23.216 48.256,23.162 48.256,23.054 L 48.256,14.761 C 48.256,14.653 48.275,14.601 48.32,14.601 L 51.04,14.601 C 51.21,14.601 51.343,14.538 51.441,14.409 C 51.537,14.281 51.606,14.142 51.649,13.992 C 51.713,13.822 51.746,13.629 51.746,13.416 C 51.746,13.354 51.739,13.257 51.73,13.128 C 51.718,12.999 51.687,12.867 51.634,12.729 C 51.58,12.59 51.505,12.466 51.408,12.361 C 51.312,12.253 51.19,12.199 51.04,12.199 L 48.32,12.199 C 48.275,12.199 48.256,12.146 48.256,12.039 L 48.256,2.561 C 48.256,2.454 48.275,2.401 48.32,2.401 L 52.162,2.401 C 52.353,2.401 52.492,2.348 52.579,2.241 C 52.663,2.133 52.726,2.011 52.77,1.873 C 52.813,1.733 52.833,1.601 52.833,1.472 L 52.833,1.217 Z" marker-start="none" marker-end="none"/>
     <path d="M 64.328,0.834 C 64.328,0.747 64.297,0.618 64.233,0.448 C 64.17,0.276 64.084,0.126 63.977,-0.001 L 62.089,-0.001 C 61.938,-0.001 61.788,0.111 61.64,0.336 C 61.49,0.56 61.358,0.816 61.239,1.104 C 61.122,1.393 61.026,1.665 60.952,1.921 C 60.876,2.177 60.84,2.337 60.84,2.401 C 60.732,2.742 60.62,3.117 60.503,3.521 C 60.386,3.927 60.263,4.344 60.134,4.771 C 59.837,5.817 59.499,6.937 59.126,8.133 C 58.753,9.329 58.407,10.449 58.085,11.495 L 58.118,11.495 C 58.097,11.537 58.075,11.597 58.052,11.671 C 58.032,11.747 58.011,11.805 57.989,11.848 C 57.947,12.039 57.897,12.232 57.846,12.425 C 57.791,12.616 57.744,12.765 57.701,12.872 L 57.669,12.872 C 57.627,12.765 57.569,12.626 57.493,12.456 C 57.417,12.283 57.359,12.125 57.318,11.975 C 57.188,11.698 57.077,11.437 56.982,11.191 C 56.886,10.945 56.837,10.802 56.837,10.759 L 56.837,0.768 C 56.837,0.553 56.777,0.393 56.662,0.288 C 56.547,0.181 56.404,0.107 56.233,0.063 C 56.065,0.021 55.891,-0.001 55.712,-0.001 L 55.284,-0.001 L 54.965,-0.001 C 54.819,-0.001 54.661,0.021 54.492,0.063 C 54.323,0.107 54.175,0.181 54.05,0.288 C 53.922,0.393 53.859,0.565 53.859,0.801 L 53.859,24.976 C 53.859,25.21 53.922,25.382 54.05,25.489 C 54.175,25.595 54.323,25.669 54.492,25.712 C 54.661,25.754 54.829,25.771 54.998,25.761 C 55.168,25.749 55.284,25.745 55.347,25.745 C 55.411,25.745 55.523,25.749 55.681,25.761 C 55.839,25.771 56.006,25.754 56.185,25.712 C 56.366,25.669 56.519,25.595 56.646,25.489 C 56.772,25.382 56.837,25.21 56.837,24.976 L 56.837,17.964 C 56.942,18.241 57.066,18.545 57.206,18.876 C 57.343,19.206 57.478,19.533 57.605,19.853 C 57.882,20.514 58.176,21.192 58.486,21.887 C 58.794,22.581 59.088,23.216 59.367,23.792 C 59.642,24.368 59.895,24.837 60.119,25.2 C 60.343,25.563 60.508,25.745 60.615,25.745 L 62.44,25.745 C 62.547,25.637 62.617,25.547 62.648,25.471 C 62.681,25.397 62.717,25.317 62.76,25.232 C 62.781,25.21 62.808,25.174 62.839,25.12 C 62.872,25.067 62.9,25.019 62.92,24.976 C 62.791,24.676 62.617,24.288 62.392,23.807 C 62.168,23.327 61.933,22.803 61.688,22.238 C 61.442,21.672 61.191,21.096 60.935,20.509 C 60.68,19.922 60.444,19.383 60.231,18.893 C 60.017,18.401 59.847,17.991 59.718,17.659 C 59.591,17.329 59.525,17.141 59.525,17.1 C 59.525,17.078 59.585,16.864 59.702,16.458 C 59.82,16.054 59.98,15.508 60.183,14.825 C 60.386,14.14 60.62,13.352 60.886,12.456 C 61.155,11.559 61.437,10.62 61.736,9.637 C 62.184,8.102 62.643,6.564 63.113,5.027 C 63.581,3.49 63.989,2.124 64.328,0.928 L 64.328,0.834 Z" marker-start="none" marker-end="none"/>
     <path d="M 71.727,24.592 C 71.727,24.527 71.72,24.432 71.71,24.303 C 71.7,24.176 71.679,24.043 71.646,23.904 C 71.614,23.764 71.55,23.642 71.454,23.534 C 71.359,23.427 71.235,23.376 71.085,23.376 L 69.196,23.376 C 69.132,23.376 69.1,23.321 69.1,23.216 L 69.1,0.768 C 69.1,0.553 69.043,0.393 68.926,0.288 C 68.809,0.181 68.668,0.107 68.497,0.063 C 68.329,0.021 68.16,-0.001 67.991,-0.001 L 67.547,-0.001 C 67.506,-0.001 67.406,-0.006 67.248,-0.017 C 67.09,-0.027 66.925,-0.011 66.756,0.032 C 66.587,0.075 66.439,0.154 66.312,0.273 C 66.185,0.39 66.123,0.565 66.123,0.801 L 66.123,23.183 C 66.123,23.203 66.118,23.226 66.107,23.247 C 66.097,23.267 66.092,23.29 66.092,23.312 L 66.092,23.376 L 64.137,23.376 C 63.965,23.376 63.839,23.439 63.753,23.567 C 63.667,23.694 63.603,23.833 63.562,23.983 C 63.517,24.133 63.485,24.336 63.466,24.592 C 63.466,24.826 63.507,25.077 63.593,25.344 C 63.677,25.611 63.891,25.745 64.233,25.745 L 70.958,25.745 C 71.17,25.745 71.331,25.692 71.436,25.585 C 71.545,25.478 71.619,25.36 71.662,25.232 C 71.705,25.105 71.727,24.976 71.727,24.849 L 71.727,24.592 Z" marker-start="none" marker-end="none"/>
     <path d="M 78.29,20.461 C 78.29,20.526 78.285,20.567 78.275,20.59 C 78.263,20.61 78.258,20.643 78.258,20.684 C 78.216,20.77 78.194,20.865 78.194,20.973 C 78.13,21.527 77.972,22.014 77.726,22.431 C 77.476,22.847 77.201,23.054 76.9,23.054 C 76.532,23.054 76.236,22.952 76.01,22.751 C 75.783,22.548 75.609,22.286 75.492,21.966 C 75.374,21.644 75.293,21.293 75.25,20.91 C 75.207,20.526 75.184,20.151 75.184,19.788 L 75.184,6.18 C 75.184,5.944 75.195,5.64 75.217,5.268 C 75.238,4.893 75.293,4.525 75.379,4.163 C 75.465,3.798 75.604,3.485 75.799,3.218 C 75.993,2.952 76.273,2.818 76.642,2.818 C 77.007,2.818 77.347,2.976 77.66,3.298 C 77.972,3.618 78.153,4.087 78.194,4.707 C 78.194,4.814 78.201,4.898 78.209,4.963 C 78.221,5.027 78.237,5.091 78.258,5.156 C 78.28,5.22 78.29,5.283 78.29,5.347 L 78.29,20.461 Z M 81.221,3.554 C 81.188,3.425 81.152,3.275 81.109,3.105 C 81.023,2.892 80.98,2.732 80.98,2.625 C 80.873,2.114 80.643,1.685 80.291,1.345 C 79.94,1.002 79.545,0.735 79.106,0.543 C 78.669,0.352 78.221,0.212 77.762,0.126 C 77.303,0.042 76.924,-0.001 76.626,-0.001 C 76.155,-0.001 75.67,0.052 75.169,0.159 C 74.666,0.267 74.209,0.453 73.79,0.72 C 73.374,0.987 73.028,1.355 72.751,1.825 C 72.474,2.294 72.312,2.892 72.271,3.618 C 72.271,3.661 72.264,3.702 72.256,3.747 C 72.243,3.788 72.238,3.841 72.238,3.905 C 72.216,3.97 72.207,4.05 72.207,4.146 L 72.207,4.354 L 72.207,21.644 C 72.207,21.753 72.211,21.88 72.223,22.03 C 72.231,22.18 72.249,22.319 72.271,22.446 C 72.312,22.746 72.398,23.102 72.526,23.518 C 72.655,23.935 72.889,24.346 73.231,24.752 C 73.402,24.943 73.658,25.105 74,25.232 C 74.341,25.36 74.709,25.461 75.105,25.537 C 75.499,25.611 75.885,25.664 76.256,25.697 C 76.631,25.73 76.934,25.745 77.17,25.745 C 77.191,25.745 77.261,25.738 77.378,25.73 C 77.495,25.718 77.633,25.707 77.795,25.697 C 77.955,25.685 78.125,25.669 78.307,25.649 C 78.488,25.628 78.653,25.604 78.803,25.585 C 79.207,25.542 79.593,25.413 79.956,25.2 L 79.891,25.2 C 80.063,25.136 80.228,24.998 80.388,24.785 C 80.548,24.572 80.692,24.32 80.82,24.031 C 80.949,23.744 81.054,23.46 81.14,23.183 C 81.226,22.904 81.269,22.67 81.269,22.479 L 81.269,3.81 C 81.269,3.767 81.252,3.683 81.221,3.554 L 81.221,3.554 Z" marker-start="none" marker-end="none"/>
     <path d="M 90.955,0.257 C 90.819,0.149 90.664,0.075 90.497,0.032 C 90.327,-0.011 90.164,-0.027 90.005,-0.017 C 89.847,-0.006 89.735,-0.001 89.671,-0.001 L 89.484,-0.001 C 89.293,-0.001 89.117,0.004 88.959,0.016 C 88.801,0.026 88.663,0.08 88.546,0.176 C 88.431,0.273 88.326,0.421 88.229,0.624 C 88.135,0.827 88.044,1.111 87.961,1.472 C 87.679,2.967 87.376,4.44 87.051,5.891 C 86.725,7.343 86.388,8.806 86.042,10.279 C 86.001,10.449 85.956,10.625 85.913,10.807 C 85.869,10.988 85.827,11.165 85.782,11.335 L 85.782,0.768 C 85.782,0.534 85.719,0.362 85.591,0.257 C 85.462,0.149 85.313,0.075 85.144,0.032 C 84.972,-0.011 84.8,-0.027 84.631,-0.017 C 84.459,-0.006 84.332,-0.001 84.246,-0.001 L 83.909,-0.001 C 83.75,-0.001 83.59,0.021 83.428,0.063 C 83.27,0.107 83.126,0.181 82.997,0.288 C 82.869,0.393 82.806,0.565 82.806,0.801 L 82.806,24.976 C 82.806,25.189 82.864,25.349 82.981,25.456 C 83.1,25.564 83.244,25.644 83.416,25.697 C 83.588,25.75 83.759,25.771 83.933,25.761 C 84.105,25.75 84.242,25.745 84.351,25.745 L 84.511,25.745 C 84.877,25.745 85.194,25.681 85.462,25.552 C 85.729,25.423 85.929,25.029 86.058,24.368 C 86.337,22.937 86.639,21.502 86.961,20.061 C 87.281,18.621 87.605,17.196 87.927,15.787 C 87.97,15.574 88.013,15.376 88.056,15.195 C 88.097,15.013 88.142,14.835 88.185,14.665 L 88.185,24.976 C 88.185,25.189 88.247,25.349 88.374,25.456 C 88.5,25.564 88.654,25.644 88.833,25.697 C 89.012,25.75 89.188,25.771 89.357,25.761 C 89.525,25.75 89.663,25.745 89.768,25.745 L 90.117,25.745 C 90.265,25.745 90.418,25.723 90.577,25.681 C 90.735,25.637 90.871,25.564 90.988,25.456 C 91.105,25.349 91.163,25.189 91.163,24.976 L 91.163,0.768 C 91.163,0.534 91.094,0.362 90.955,0.257 L 90.955,0.257 Z" marker-start="none" marker-end="none"/>
     <path d="M 95.71,1.281 C 95.71,0.598 95.593,0.207 95.357,0.111 C 95.121,0.016 94.834,-0.022 94.493,-0.001 L 93.98,-0.001 L 93.483,-0.001 C 93.325,-0.001 93.183,0.042 93.066,0.128 C 92.949,0.212 92.86,0.341 92.796,0.512 C 92.731,0.684 92.7,0.938 92.7,1.281 C 92.7,1.942 92.822,2.322 93.066,2.417 C 93.313,2.513 93.607,2.551 93.948,2.53 L 94.493,2.53 L 95.004,2.53 C 95.154,2.53 95.283,2.492 95.388,2.417 C 95.496,2.343 95.575,2.214 95.63,2.033 C 95.682,1.85 95.71,1.601 95.71,1.281 Z M 95.694,14.889 C 95.682,14.804 95.667,14.698 95.646,14.569 C 95.601,14.355 95.575,14.132 95.565,13.896 C 95.555,13.662 95.538,13.438 95.517,13.225 C 95.453,12.542 95.377,11.762 95.293,10.888 C 95.207,10.01 95.121,9.126 95.037,8.229 C 94.994,7.865 94.963,7.519 94.94,7.188 C 94.92,6.858 94.887,6.521 94.846,6.18 C 94.823,6.137 94.791,6.056 94.749,5.941 C 94.705,5.822 94.653,5.731 94.589,5.667 L 94.237,5.314 C 94.087,5.443 93.937,5.614 93.789,5.827 C 93.639,6.041 93.553,6.213 93.531,6.34 C 93.488,6.81 93.442,7.338 93.388,7.925 C 93.333,8.512 93.276,9.109 93.213,9.718 C 93.147,10.327 93.084,10.919 93.02,11.495 C 92.955,12.07 92.903,12.595 92.86,13.065 C 92.815,13.555 92.779,13.96 92.746,14.281 C 92.715,14.601 92.7,14.782 92.7,14.825 L 92.7,24.943 C 92.7,25.179 92.764,25.349 92.893,25.456 C 93.02,25.564 93.175,25.637 93.357,25.681 C 93.538,25.723 93.713,25.738 93.884,25.73 C 94.054,25.718 94.183,25.714 94.269,25.714 L 94.605,25.714 C 94.765,25.714 94.925,25.692 95.085,25.649 C 95.245,25.606 95.388,25.532 95.517,25.423 C 95.646,25.317 95.71,25.157 95.71,24.943 L 95.71,15.147 C 95.71,15.061 95.703,14.975 95.694,14.889 L 95.694,14.889 Z" marker-start="none" marker-end="none"/>
    </g>
   </g>
  </g>
 </g>
</svg>
