<?xml version="1.0" encoding="utf-8"?>
<!-- Generator: Adobe Illustrator 16.0.0, SVG Export Plug-In . SVG Version: 6.00 Build 0)  -->
<!DOCTYPE svg PUBLIC "-//W3C//DTD SVG 1.1//EN" "http://www.w3.org/Graphics/SVG/1.1/DTD/svg11.dtd">
<svg version="1.1" id="Layer_1" xmlns="http://www.w3.org/2000/svg" xmlns:xlink="http://www.w3.org/1999/xlink" x="0px" y="0px"
	 width="1024px" height="286px" viewBox="0 364.5 1024 286" enable-background="new 0 364.5 1024 286" xml:space="preserve">
<g>
	<g>
		<g id="Nuva_Logo_2_">
			<path fill="#FAFAFA" d="M174.15,623.195c-1.667,0.518-4.21,0.127-5.65-0.854l-77.43-52.825c-1.44-0.982-2.726-3.209-2.856-4.948
				l-7.007-93.452c-0.13-1.743,0.81-4.133,2.087-5.318l68.68-63.74c1.279-1.188,3.736-1.948,5.459-1.688l92.646,13.959
				c1.724,0.26,3.851,1.709,4.723,3.223l46.859,81.183c0.872,1.51,1.063,4.074,0.428,5.698L267.87,591.69
				c-0.635,1.627-2.521,3.377-4.187,3.887L174.15,623.195L174.15,623.195z M220.874,547.479c1.667-0.514,3.551-2.261,4.19-3.884
				l14.693-37.476c0.637-1.62,0.445-4.188-0.426-5.698l-20.125-34.863c-0.872-1.51-2.997-2.959-4.721-3.216l-39.786-6
				c-1.726-0.26-4.182,0.5-5.461,1.686L139.745,485.4c-1.279,1.191-2.217,3.583-2.087,5.321l3.01,40.134
				c0.13,1.739,1.416,3.967,2.856,4.948l33.251,22.687c1.442,0.985,3.983,1.365,5.651,0.853L220.874,547.479L220.874,547.479z"/>
		</g>
	</g>
	<g>
		<path fill="#FAFAFA" d="M382.259,543.213l-36.341-55.523v55.523h-4.597v-62.686h5.217l36.426,55.436v-55.436h4.509v62.686H382.259
			z"/>
		<path fill="#FAFAFA" d="M436.451,544.363c-15.033,0-22.192-10.344-22.192-24.139v-39.697h4.599v39.788
			c0,10.876,5.305,19.63,17.594,19.63s17.683-8.754,17.683-19.63v-39.788h4.597v39.697
			C458.733,534.021,451.483,544.363,436.451,544.363z"/>
		<path fill="#FAFAFA" d="M503.465,543.213h-4.329l-22.462-62.686h4.865l19.892,56.055l19.63-56.055h4.863L503.465,543.213z"/>
		<path fill="#FAFAFA" d="M580.739,543.213l-6.363-16.531h-30.329l-6.19,16.531h-4.774l23.788-62.686h4.507l24.055,62.686H580.739z
			 M559.074,486.894l-13.35,35.456h26.967L559.074,486.894z"/>
		<path fill="#FAFAFA" d="M604.082,543.213v-7.956h7.773v7.956H604.082z"/>
		<path fill="#FAFAFA" d="M669.063,515.366l12.731,27.85h-5.041l-12.288-26.702h-21.842v26.702h-4.604v-62.688h22.903
			c13.706,0,21.138,7.161,21.138,18.034C682.063,506.788,676.932,513.243,669.063,515.366z M660.924,484.859h-18.301v27.41h18.301
			c10.351,0,16.363-4.776,16.363-13.705C677.287,489.633,671.273,484.859,660.924,484.859z"/>
		<path fill="#FAFAFA" d="M740.493,538c-3.892,3.713-9.281,6.363-16.097,6.363c-6.809,0-12.198-2.65-16.09-6.363
			c-7.067-6.809-7.869-17.154-7.869-26.171s0.802-19.277,7.869-26.085c3.892-3.712,9.281-6.367,16.09-6.367
			c6.814,0,12.205,2.654,16.097,6.367c7.075,6.808,7.87,17.068,7.87,26.085S747.568,531.191,740.493,538z M737.137,488.75
			c-3.272-3.182-7.877-4.863-12.738-4.863c-4.856,0-9.452,1.683-12.728,4.863c-6.19,5.925-6.459,15.65-6.459,23.079
			c0,7.425,0.269,17.24,6.459,23.165c3.274,3.185,7.87,4.863,12.728,4.863c4.861,0,9.466-1.68,12.738-4.863
			c6.186-5.925,6.445-15.739,6.445-23.165C743.582,504.4,743.321,494.675,737.137,488.75z"/>
		<path fill="#FAFAFA" d="M791.329,544.363c-6.014,0-12.199-2.478-16.534-6.81c-6.72-6.805-7.336-16.795-7.336-25.726
			c0-8.936,0.616-18.835,7.336-25.645c4.335-4.333,10.521-6.809,16.534-6.809c12.466,0,21.308,8.753,22.28,20.339h-4.773
			c-0.795-9.284-7.604-15.829-17.507-15.829c-5.576,0-9.815,1.949-13.179,5.395c-5.657,5.835-5.926,15.03-5.926,22.548
			c0,7.514,0.356,16.798,6.015,22.634c3.452,3.537,7.87,5.394,13.09,5.394c9.903,0,16.712-6.545,17.507-15.828h4.773
			C812.637,535.613,803.795,544.363,791.329,544.363z"/>
		<path fill="#FAFAFA" d="M877.527,543.213l-20.773-35.809l-16.268,18.391v17.418h-4.691v-62.686h4.691v38.637l34.479-38.637h5.657
			l-20.773,23.432l22.897,39.254H877.527z"/>
		<path fill="#FAFAFA" d="M938.355,538.264c-4.238,4.157-10.521,6.101-17.767,6.101c-7.165,0-13.356-2.303-17.508-6.721
			c-3.096-3.271-5.219-7.69-5.664-12.466h4.774c0.444,3.713,2.212,7.161,4.596,9.639c3.363,3.447,8.582,5.13,13.794,5.13
			c5.397,0,10.788-1.418,14.24-4.688c2.205-2.12,3.712-5.038,3.712-9.017c0-6.016-4.691-11.23-12.205-12.199l-11.671-1.507
			c-8.843-1.147-15.384-6.186-15.384-15.825c0-5.216,2.301-8.932,5.479-11.85c3.891-3.538,9.637-5.483,15.473-5.483
			c6.72,0,13.445,2.743,16.979,6.901c2.649,3.092,4.418,6.365,4.772,10.873h-4.685c-0.445-3.182-1.411-5.568-3.452-7.958
			c-2.739-3.356-7.863-5.392-13.616-5.392c-4.507,0-8.836,1.151-11.932,3.801c-2.392,2.124-4.247,5.041-4.247,9.106
			c0,7.428,5.309,10.26,11.056,10.966l11.843,1.503c9.727,1.236,16.362,8.219,16.362,17.065
			C943.309,531.719,941.273,535.346,938.355,538.264z"/>
	</g>
</g>
</svg>
