<?xml version="1.0" encoding="utf-8"?>
<!-- Generator: Adobe Illustrator 16.0.0, SVG Export Plug-In . SVG Version: 6.00 Build 0)  -->
<!DOCTYPE svg PUBLIC "-//W3C//DTD SVG 1.1//EN" "http://www.w3.org/Graphics/SVG/1.1/DTD/svg11.dtd">
<svg version="1.1" id="Layer_1" xmlns="http://www.w3.org/2000/svg" xmlns:xlink="http://www.w3.org/1999/xlink" x="0px" y="0px"
	 width="1024px" height="286px" viewBox="0 0 1024 286" enable-background="new 0 0 1024 286" xml:space="preserve">
<g>
	<g>
		<g id="Nuva_Logo_2_">
			<path fill="#222222" d="M174.15,253.195c-1.667,0.518-4.21,0.127-5.65-0.854l-77.43-52.825c-1.44-0.981-2.726-3.209-2.856-4.947
				l-7.007-93.452c-0.13-1.743,0.81-4.133,2.087-5.318l68.68-63.74c1.279-1.188,3.736-1.947,5.459-1.688l92.646,13.959
				c1.724,0.26,3.851,1.709,4.723,3.223l46.859,81.184c0.872,1.51,1.063,4.073,0.428,5.697L267.87,221.69
				c-0.635,1.627-2.521,3.377-4.187,3.887L174.15,253.195L174.15,253.195z M220.874,177.479c1.667-0.514,3.551-2.261,4.19-3.884
				l14.693-37.476c0.637-1.62,0.445-4.188-0.426-5.698l-20.125-34.863c-0.872-1.51-2.997-2.959-4.721-3.216l-39.786-6
				c-1.726-0.26-4.182,0.5-5.461,1.687L139.745,115.4c-1.279,1.19-2.217,3.583-2.087,5.32l3.01,40.135
				c0.13,1.738,1.416,3.967,2.856,4.947l33.251,22.688c1.442,0.984,3.983,1.365,5.651,0.853L220.874,177.479L220.874,177.479z"/>
		</g>
	</g>
	<g>
		<path fill="#222222" d="M382.259,173.213l-36.341-55.522v55.522h-4.597v-62.686h5.217l36.426,55.436v-55.436h4.509v62.686H382.259
			z"/>
		<path fill="#222222" d="M436.451,174.363c-15.033,0-22.192-10.345-22.192-24.14v-39.696h4.6v39.788
			c0,10.876,5.305,19.63,17.594,19.63s17.683-8.754,17.683-19.63v-39.788h4.598v39.696
			C458.733,164.021,451.483,174.363,436.451,174.363z"/>
		<path fill="#222222" d="M503.465,173.213h-4.329l-22.462-62.686h4.865l19.892,56.055l19.63-56.055h4.863L503.465,173.213z"/>
		<path fill="#222222" d="M580.739,173.213l-6.363-16.531h-30.329l-6.189,16.531h-4.774l23.788-62.686h4.507l24.056,62.686H580.739z
			 M559.074,116.894l-13.351,35.456h26.968L559.074,116.894z"/>
		<path fill="#222222" d="M604.082,173.213v-7.956h7.773v7.956H604.082z"/>
		<path fill="#222222" d="M669.063,145.366l12.731,27.85h-5.041l-12.288-26.702h-21.842v26.702h-4.604v-62.688h22.903
			c13.706,0,21.138,7.161,21.138,18.034C682.063,136.788,676.932,143.243,669.063,145.366z M660.924,114.859h-18.301v27.409h18.301
			c10.352,0,16.363-4.775,16.363-13.704C677.287,119.633,671.273,114.859,660.924,114.859z"/>
		<path fill="#222222" d="M740.493,168c-3.893,3.713-9.281,6.363-16.097,6.363c-6.81,0-12.198-2.65-16.091-6.363
			c-7.066-6.809-7.869-17.154-7.869-26.171s0.803-19.277,7.869-26.085c3.893-3.712,9.281-6.367,16.091-6.367
			c6.813,0,12.204,2.654,16.097,6.367c7.075,6.808,7.87,17.068,7.87,26.085S747.568,161.191,740.493,168z M737.137,118.75
			c-3.271-3.182-7.877-4.863-12.737-4.863c-4.856,0-9.452,1.684-12.729,4.863c-6.189,5.925-6.459,15.65-6.459,23.079
			c0,7.425,0.27,17.24,6.459,23.165c3.274,3.185,7.87,4.863,12.729,4.863c4.86,0,9.466-1.681,12.737-4.863
			c6.187-5.925,6.445-15.739,6.445-23.165C743.582,134.4,743.321,124.675,737.137,118.75z"/>
		<path fill="#222222" d="M791.329,174.363c-6.014,0-12.199-2.479-16.534-6.811c-6.72-6.805-7.336-16.795-7.336-25.726
			c0-8.937,0.616-18.835,7.336-25.646c4.335-4.333,10.521-6.809,16.534-6.809c12.466,0,21.308,8.753,22.28,20.339h-4.773
			c-0.795-9.284-7.604-15.829-17.507-15.829c-5.576,0-9.815,1.949-13.179,5.396c-5.657,5.835-5.927,15.029-5.927,22.548
			c0,7.514,0.356,16.798,6.016,22.634c3.452,3.537,7.87,5.394,13.09,5.394c9.903,0,16.712-6.545,17.507-15.827h4.773
			C812.637,165.613,803.795,174.363,791.329,174.363z"/>
		<path fill="#222222" d="M877.527,173.213l-20.773-35.809l-16.268,18.391v17.418h-4.691v-62.686h4.691v38.637l34.479-38.637h5.657
			l-20.773,23.432l22.897,39.254H877.527z"/>
		<path fill="#222222" d="M938.355,168.264c-4.238,4.157-10.521,6.102-17.768,6.102c-7.165,0-13.355-2.303-17.508-6.722
			c-3.096-3.271-5.219-7.689-5.664-12.466h4.773c0.444,3.713,2.213,7.161,4.597,9.64c3.362,3.446,8.582,5.13,13.794,5.13
			c5.396,0,10.788-1.418,14.24-4.688c2.205-2.12,3.712-5.038,3.712-9.017c0-6.017-4.691-11.23-12.205-12.199l-11.671-1.507
			c-8.844-1.147-15.385-6.187-15.385-15.825c0-5.216,2.302-8.932,5.479-11.85c3.891-3.538,9.637-5.483,15.473-5.483
			c6.721,0,13.445,2.743,16.979,6.901c2.648,3.092,4.418,6.364,4.771,10.873h-4.685c-0.445-3.183-1.411-5.568-3.452-7.958
			c-2.739-3.356-7.863-5.393-13.616-5.393c-4.507,0-8.836,1.151-11.932,3.801c-2.393,2.124-4.247,5.041-4.247,9.106
			c0,7.428,5.309,10.26,11.056,10.966l11.843,1.503c9.728,1.236,16.362,8.219,16.362,17.065
			C943.309,161.719,941.273,165.346,938.355,168.264z"/>
	</g>
</g>
</svg>
